<?xml version="1.0" encoding="UTF-8"?>
<svg width="20px" height="20px" viewBox="0 0 20 20" version="1.1" xmlns="http://www.w3.org/2000/svg" xmlns:xlink="http://www.w3.org/1999/xlink">
    <!-- Generator: Sketch 47.1 (45422) - http://www.bohemiancoding.com/sketch -->
    <title>警告</title>
    <desc>Created with Sketch.</desc>
    <defs></defs>
    <g id="Page-1" stroke="none" stroke-width="1" fill="none" fill-rule="evenodd">
        <g id="警告" fill="#D33934">
            <path d="M10,20 C4.4771525,20 0,15.5228475 0,10 C0,4.4771525 4.4771525,0 10,0 C15.5228475,0 20,4.4771525 20,10 C20,15.5228475 15.5228475,20 10,20 Z M9.14965986,5 L9.46258503,12.1708683 L10.537415,12.1708683 L10.8503401,5 L9.14965986,5 Z M9.99319728,12.9971989 C9.72108844,12.9971989 9.48979592,13.0812325 9.29931973,13.2773109 C9.0952381,13.4593838 9,13.697479 9,13.9915966 C9,14.2717087 9.0952381,14.5098039 9.29931973,14.7058824 C9.48979592,14.9019608 9.72108844,15 9.99319728,15 C10.2653061,15 10.5102041,14.9019608 10.7142857,14.719888 C10.9047619,14.5238095 11,14.2857143 11,13.9915966 C11,13.697479 10.9047619,13.4593838 10.7142857,13.2773109 C10.5238095,13.0812325 10.2789116,12.9971989 9.99319728,12.9971989 Z" id="Combined-Shape"></path>
        </g>
    </g>
</svg>